<svg width="689" height="819" viewBox="0 0 689 819" fill="none" xmlns="http://www.w3.org/2000/svg">
<g filter="url(#filter0_dd)">
<circle cx="164" cy="77" r="124" fill="#F8F8F8"/>
</g>
<g filter="url(#filter1_dd)">
<circle cx="164" cy="77.0003" r="93.1482" fill="#F8F8F8"/>
</g>
<g filter="url(#filter2_ii)">
<path d="M188.168 90.3056C188.168 95.0562 186.43 99.1407 182.954 102.559C179.478 105.919 174.466 108.005 167.92 108.816V118.549H159.229V109.077C154.942 108.845 150.858 108.092 146.976 106.817C143.094 105.542 139.966 103.978 137.591 102.124L142.37 91.5222C144.572 93.1444 147.15 94.5059 150.104 95.6066C153.059 96.7074 156.101 97.4026 159.229 97.6923V83.1795C155.116 82.1946 151.64 81.0939 148.801 79.8772C145.962 78.6606 143.587 76.8936 141.675 74.5762C139.763 72.2008 138.807 69.0723 138.807 65.1907C138.807 60.3821 140.545 56.2687 144.021 52.8505C147.555 49.3744 152.625 47.2598 159.229 46.5066V36.8604H167.92V46.3328C175.046 46.9122 180.926 48.6792 185.561 51.6339L181.216 62.3229C176.87 59.8317 172.438 58.3254 167.92 57.804V72.5774C171.975 73.5044 175.393 74.5762 178.174 75.7928C181.013 76.9515 183.388 78.7185 185.3 81.0939C187.212 83.4113 188.168 86.4818 188.168 90.3056ZM152.798 64.4955C152.798 65.9439 153.349 67.1315 154.45 68.0585C155.55 68.9854 157.144 69.7676 159.229 70.4049V58.0647C157.028 58.5861 155.406 59.4262 154.363 60.5849C153.32 61.6856 152.798 62.9892 152.798 64.4955ZM167.92 97.3447C170.005 96.8812 171.569 96.128 172.612 95.0852C173.655 94.0424 174.177 92.7968 174.177 91.3484C174.177 89.9 173.626 88.7123 172.525 87.7854C171.483 86.8584 169.947 86.0473 167.92 85.3521V97.3447Z" fill="#F8F8F8"/>
</g>
<g filter="url(#filter3_dd)">
<path d="M316.17 551.388L307.05 588.326C306.021 592.493 303.853 595.576 300.546 597.573C297.24 599.57 293.882 600.148 290.472 599.306L236.486 585.977C232.318 584.948 229.425 582.827 227.807 579.614C226.282 576.022 225.988 572.331 226.923 568.543L238.709 520.808C242.076 507.169 248.479 495.888 257.917 486.963C267.734 478.133 278.457 471.334 290.084 466.568C301.711 461.802 313.292 457.225 324.826 452.838C336.359 448.451 346.752 442.174 356.003 434.007C365.727 425.555 372.132 415.078 375.219 402.576C379.147 386.665 376.214 370.868 366.42 355.185C357.005 339.596 343.773 329.698 326.725 325.488C310.055 321.373 294.069 324.259 278.765 334.147C263.555 343.655 253.893 356.745 249.777 373.414L247.672 381.938C245.615 390.273 240.229 393.365 231.515 391.213L176.961 377.744C168.626 375.686 165.394 370.869 167.265 363.292L169.65 353.631C179.284 314.609 201.063 285.821 234.986 267.266C269.003 248.333 305.522 243.683 344.543 253.317C384.323 263.139 415.05 284.391 436.724 317.075C458.777 349.852 464.987 385.751 455.353 424.773C450.395 444.852 442.493 461.39 431.647 474.388C421.18 487.48 410.039 496.788 398.225 502.312C386.41 507.836 374.594 512.555 362.775 516.47C351.428 520.1 341.267 524.625 332.292 530.046C323.789 535.181 318.415 542.296 316.17 551.388ZM199.773 654.086C202.954 641.205 209.976 631.484 220.841 624.921C232.179 618.074 244.098 616.193 256.6 619.28C269.86 622.554 279.724 629.813 286.193 641.056C292.755 651.921 294.446 663.794 291.266 676.675C288.179 689.177 281.157 698.899 270.198 705.84C259.333 712.402 247.271 714.046 234.011 710.773C221.509 707.686 211.788 700.663 204.846 689.705C198.378 678.461 196.687 666.588 199.773 654.086Z" fill="#F8F8F8"/>
</g>
<g filter="url(#filter4_dd)">
<circle cx="646.545" cy="227.545" r="115.545" fill="#F8F8F8"/>
</g>
<g filter="url(#filter5_ii)">
<circle cx="646.545" cy="227.545" r="88.967" fill="#F8F8F8"/>
</g>
<g filter="url(#filter6_ii)">
<path d="M628.316 231.619V248.73H619.76V257.286H632.593V265.841H641.149V257.286H649.705V265.841H658.26V257.068C666.679 256.002 673.232 248.876 673.232 240.175C673.232 234.528 670.452 229.549 666.217 226.43C669.34 223.248 671.091 218.967 671.093 214.508C671.093 206.56 665.622 199.916 658.26 198.004V188.841H649.705V197.397H641.149V188.841H632.593V197.397H619.76V205.952H628.316V231.619ZM656.121 248.73H636.871V231.619H656.121C660.84 231.619 664.677 235.456 664.677 240.175C664.677 244.893 660.84 248.73 656.121 248.73ZM636.871 205.952H653.982C658.701 205.952 662.538 209.79 662.538 214.508C662.538 219.226 658.701 223.064 653.982 223.064H636.871V205.952Z" fill="#F8F8F8"/>
</g>
<defs>
<filter id="filter0_dd" x="0.70492" y="-86.2951" width="326.59" height="326.59" filterUnits="userSpaceOnUse" color-interpolation-filters="sRGB">
<feFlood flood-opacity="0" result="BackgroundImageFix"/>
<feColorMatrix in="SourceAlpha" type="matrix" values="0 0 0 0 0 0 0 0 0 0 0 0 0 0 0 0 0 0 127 0" result="hardAlpha"/>
<feOffset dx="14.7357" dy="14.7357"/>
<feGaussianBlur stdDeviation="12.2797"/>
<feComposite in2="hardAlpha" operator="out"/>
<feColorMatrix type="matrix" values="0 0 0 0 0.819608 0 0 0 0 0.85098 0 0 0 0 0.901961 0 0 0 1 0"/>
<feBlend mode="normal" in2="BackgroundImageFix" result="effect1_dropShadow"/>
<feColorMatrix in="SourceAlpha" type="matrix" values="0 0 0 0 0 0 0 0 0 0 0 0 0 0 0 0 0 0 127 0" result="hardAlpha"/>
<feOffset dx="-14.7357" dy="-14.7357"/>
<feGaussianBlur stdDeviation="12.2797"/>
<feComposite in2="hardAlpha" operator="out"/>
<feColorMatrix type="matrix" values="0 0 0 0 1 0 0 0 0 1 0 0 0 0 1 0 0 0 1 0"/>
<feBlend mode="normal" in2="effect1_dropShadow" result="effect2_dropShadow"/>
<feBlend mode="normal" in="SourceGraphic" in2="effect2_dropShadow" result="shape"/>
</filter>
<filter id="filter1_dd" x="41.3334" y="-45.6662" width="240.329" height="245.333" filterUnits="userSpaceOnUse" color-interpolation-filters="sRGB">
<feFlood flood-opacity="0" result="BackgroundImageFix"/>
<feColorMatrix in="SourceAlpha" type="matrix" values="0 0 0 0 0 0 0 0 0 0 0 0 0 0 0 0 0 0 127 0" result="hardAlpha"/>
<feOffset dx="6.06587" dy="11.0694"/>
<feGaussianBlur stdDeviation="9.22446"/>
<feComposite in2="hardAlpha" operator="out"/>
<feColorMatrix type="matrix" values="0 0 0 0 0.819608 0 0 0 0 0.85098 0 0 0 0 0.901961 0 0 0 1 0"/>
<feBlend mode="normal" in2="BackgroundImageFix" result="effect1_dropShadow"/>
<feColorMatrix in="SourceAlpha" type="matrix" values="0 0 0 0 0 0 0 0 0 0 0 0 0 0 0 0 0 0 127 0" result="hardAlpha"/>
<feOffset dx="-11.0694" dy="-11.0694"/>
<feGaussianBlur stdDeviation="9.22446"/>
<feComposite in2="hardAlpha" operator="out"/>
<feColorMatrix type="matrix" values="0 0 0 0 1 0 0 0 0 1 0 0 0 0 1 0 0 0 1 0"/>
<feBlend mode="normal" in2="effect1_dropShadow" result="effect2_dropShadow"/>
<feBlend mode="normal" in="SourceGraphic" in2="effect2_dropShadow" result="shape"/>
</filter>
<filter id="filter2_ii" x="135.335" y="34.6054" width="55.0873" height="86.1984" filterUnits="userSpaceOnUse" color-interpolation-filters="sRGB">
<feFlood flood-opacity="0" result="BackgroundImageFix"/>
<feBlend mode="normal" in="SourceGraphic" in2="BackgroundImageFix" result="shape"/>
<feColorMatrix in="SourceAlpha" type="matrix" values="0 0 0 0 0 0 0 0 0 0 0 0 0 0 0 0 0 0 127 0" result="hardAlpha"/>
<feOffset dx="2.25496" dy="2.25496"/>
<feGaussianBlur stdDeviation="4.7244"/>
<feComposite in2="hardAlpha" operator="arithmetic" k2="-1" k3="1"/>
<feColorMatrix type="matrix" values="0 0 0 0 0.819608 0 0 0 0 0.85098 0 0 0 0 0.901961 0 0 0 1 0"/>
<feBlend mode="normal" in2="shape" result="effect1_innerShadow"/>
<feColorMatrix in="SourceAlpha" type="matrix" values="0 0 0 0 0 0 0 0 0 0 0 0 0 0 0 0 0 0 127 0" result="hardAlpha"/>
<feOffset dx="-2.25496" dy="-2.25496"/>
<feGaussianBlur stdDeviation="4.7244"/>
<feComposite in2="hardAlpha" operator="arithmetic" k2="-1" k3="1"/>
<feColorMatrix type="matrix" values="0 0 0 0 1 0 0 0 0 1 0 0 0 0 1 0 0 0 1 0"/>
<feBlend mode="normal" in2="effect1_innerShadow" result="effect2_innerShadow"/>
</filter>
<filter id="filter3_dd" x="101.543" y="183.237" width="423.41" height="594.378" filterUnits="userSpaceOnUse" color-interpolation-filters="sRGB">
<feFlood flood-opacity="0" result="BackgroundImageFix"/>
<feColorMatrix in="SourceAlpha" type="matrix" values="0 0 0 0 0 0 0 0 0 0 0 0 0 0 0 0 0 0 127 0" result="hardAlpha"/>
<feOffset dx="24.4527" dy="24.4527"/>
<feGaussianBlur stdDeviation="20.3773"/>
<feComposite in2="hardAlpha" operator="out"/>
<feColorMatrix type="matrix" values="0 0 0 0 0.819608 0 0 0 0 0.85098 0 0 0 0 0.901961 0 0 0 1 0"/>
<feBlend mode="normal" in2="BackgroundImageFix" result="effect1_dropShadow"/>
<feColorMatrix in="SourceAlpha" type="matrix" values="0 0 0 0 0 0 0 0 0 0 0 0 0 0 0 0 0 0 127 0" result="hardAlpha"/>
<feOffset dx="-24.4527" dy="-24.4527"/>
<feGaussianBlur stdDeviation="20.3773"/>
<feComposite in2="hardAlpha" operator="out"/>
<feColorMatrix type="matrix" values="0 0 0 0 1 0 0 0 0 1 0 0 0 0 1 0 0 0 1 0"/>
<feBlend mode="normal" in2="effect1_dropShadow" result="effect2_dropShadow"/>
<feBlend mode="normal" in="SourceGraphic" in2="effect2_dropShadow" result="shape"/>
</filter>
<filter id="filter4_dd" x="494.384" y="75.3844" width="304.321" height="304.321" filterUnits="userSpaceOnUse" color-interpolation-filters="sRGB">
<feFlood flood-opacity="0" result="BackgroundImageFix"/>
<feColorMatrix in="SourceAlpha" type="matrix" values="0 0 0 0 0 0 0 0 0 0 0 0 0 0 0 0 0 0 127 0" result="hardAlpha"/>
<feOffset dx="13.7309" dy="13.7309"/>
<feGaussianBlur stdDeviation="11.4424"/>
<feComposite in2="hardAlpha" operator="out"/>
<feColorMatrix type="matrix" values="0 0 0 0 0.819608 0 0 0 0 0.85098 0 0 0 0 0.901961 0 0 0 1 0"/>
<feBlend mode="normal" in2="BackgroundImageFix" result="effect1_dropShadow"/>
<feColorMatrix in="SourceAlpha" type="matrix" values="0 0 0 0 0 0 0 0 0 0 0 0 0 0 0 0 0 0 127 0" result="hardAlpha"/>
<feOffset dx="-13.7309" dy="-13.7309"/>
<feGaussianBlur stdDeviation="11.4424"/>
<feComposite in2="hardAlpha" operator="out"/>
<feColorMatrix type="matrix" values="0 0 0 0 1 0 0 0 0 1 0 0 0 0 1 0 0 0 1 0"/>
<feBlend mode="normal" in2="effect1_dropShadow" result="effect2_dropShadow"/>
<feBlend mode="normal" in="SourceGraphic" in2="effect2_dropShadow" result="shape"/>
</filter>
<filter id="filter5_ii" x="547.005" y="128.005" width="194.3" height="199.079" filterUnits="userSpaceOnUse" color-interpolation-filters="sRGB">
<feFlood flood-opacity="0" result="BackgroundImageFix"/>
<feBlend mode="normal" in="SourceGraphic" in2="BackgroundImageFix" result="shape"/>
<feColorMatrix in="SourceAlpha" type="matrix" values="0 0 0 0 0 0 0 0 0 0 0 0 0 0 0 0 0 0 127 0" result="hardAlpha"/>
<feOffset dx="5.79358" dy="10.5725"/>
<feGaussianBlur stdDeviation="8.8104"/>
<feComposite in2="hardAlpha" operator="arithmetic" k2="-1" k3="1"/>
<feColorMatrix type="matrix" values="0 0 0 0 0.819608 0 0 0 0 0.85098 0 0 0 0 0.901961 0 0 0 1 0"/>
<feBlend mode="normal" in2="shape" result="effect1_innerShadow"/>
<feColorMatrix in="SourceAlpha" type="matrix" values="0 0 0 0 0 0 0 0 0 0 0 0 0 0 0 0 0 0 127 0" result="hardAlpha"/>
<feOffset dx="-10.5725" dy="-10.5725"/>
<feGaussianBlur stdDeviation="8.8104"/>
<feComposite in2="hardAlpha" operator="arithmetic" k2="-1" k3="1"/>
<feColorMatrix type="matrix" values="0 0 0 0 1 0 0 0 0 1 0 0 0 0 1 0 0 0 1 0"/>
<feBlend mode="normal" in2="effect1_innerShadow" result="effect2_innerShadow"/>
</filter>
<filter id="filter6_ii" x="617.772" y="186.853" width="57.4489" height="80.9766" filterUnits="userSpaceOnUse" color-interpolation-filters="sRGB">
<feFlood flood-opacity="0" result="BackgroundImageFix"/>
<feBlend mode="normal" in="SourceGraphic" in2="BackgroundImageFix" result="shape"/>
<feColorMatrix in="SourceAlpha" type="matrix" values="0 0 0 0 0 0 0 0 0 0 0 0 0 0 0 0 0 0 127 0" result="hardAlpha"/>
<feOffset dx="-1.98832" dy="-1.98832"/>
<feGaussianBlur stdDeviation="2.91411"/>
<feComposite in2="hardAlpha" operator="arithmetic" k2="-1" k3="1"/>
<feColorMatrix type="matrix" values="0 0 0 0 1 0 0 0 0 1 0 0 0 0 1 0 0 0 1 0"/>
<feBlend mode="normal" in2="shape" result="effect1_innerShadow"/>
<feColorMatrix in="SourceAlpha" type="matrix" values="0 0 0 0 0 0 0 0 0 0 0 0 0 0 0 0 0 0 127 0" result="hardAlpha"/>
<feOffset dx="1.98832" dy="1.98832"/>
<feGaussianBlur stdDeviation="2.91411"/>
<feComposite in2="hardAlpha" operator="arithmetic" k2="-1" k3="1"/>
<feColorMatrix type="matrix" values="0 0 0 0 0.819608 0 0 0 0 0.85098 0 0 0 0 0.901961 0 0 0 1 0"/>
<feBlend mode="normal" in2="effect1_innerShadow" result="effect2_innerShadow"/>
</filter>
</defs>
</svg>