<svg width="35" height="31" viewBox="0 0 35 31" fill="none" xmlns="http://www.w3.org/2000/svg">
<path d="M32.3583 3.04522C28.9806 -0.47522 22.9033 -0.477411 19.5229 3.03988L17.9519 4.56616L16.1951 2.80936C12.492 -0.893812 6.46644 -0.893812 2.76334 2.80936C-0.921078 6.34446 -0.921147 12.706 2.76334 16.2411L2.94128 16.4191L2.59361 16.7668C1.26835 18.0383 1.26842 20.3263 2.59361 21.5978L2.62388 21.6281C3.26046 22.2646 4.10415 22.6183 5.00295 22.6277C5.01233 23.5265 5.36608 24.3701 6.0026 25.0067L6.03286 25.037C6.68183 25.6857 7.54757 26.0429 8.46547 26.0371C8.48786 26.9162 8.83977 27.7394 9.46389 28.3635L9.49415 28.3938C10.7657 29.7191 13.0536 29.719 14.3251 28.3938L14.7822 27.9368L16.8271 29.9818C18.1426 31.2972 20.2831 31.2971 21.5986 29.9817C22.2433 29.337 22.5712 28.4942 22.584 27.6474C24.3325 27.6563 25.8752 26.1463 25.9021 24.3966C28.3972 24.3697 29.9051 21.5678 28.5695 19.4696L32.3379 15.9059C35.8795 12.5312 35.8884 6.43155 32.3583 3.04522ZM6.00246 20.1757C5.49548 20.7041 4.58312 20.7041 4.07614 20.1757L4.04588 20.1455C3.51747 19.6384 3.51747 18.7262 4.04588 18.2191L5.93167 16.3333C6.46295 15.8021 7.32711 15.8024 7.8584 16.3337L7.88832 16.3636C8.41933 16.8946 8.41939 17.7587 7.88859 18.2897L6.00246 20.1757ZM9.41144 23.5847C8.90446 24.1132 7.99211 24.1131 7.48513 23.5847L7.45487 23.5544C6.92646 23.0474 6.92653 22.1351 7.45487 21.6281L10.5373 18.5457C11.0447 18.0171 11.9566 18.0172 12.4641 18.5461L12.494 18.576C13.0224 19.083 13.0223 19.9953 12.494 20.5024L9.41144 23.5847ZM14.0952 25.7191L12.8727 26.9415C12.3653 27.4701 11.4534 27.47 10.9459 26.9411L10.9159 26.9111C10.3876 26.4041 10.3877 25.4918 10.916 24.9849L12.1386 23.7624C12.6459 23.2339 13.5579 23.234 14.0653 23.7629L14.0952 23.7928C14.6237 24.2997 14.6236 25.212 14.0952 25.7191ZM26.6711 22.0045C26.2193 22.4563 25.4842 22.4564 25.0323 22.0045L22.9949 19.967C22.5939 19.566 21.9436 19.566 21.5425 19.967C21.1415 20.368 21.1415 21.0183 21.5425 21.4194L23.4659 23.3428C24.6531 24.6328 22.8877 26.3964 21.599 25.2097L19.6858 23.2965C19.2848 22.8955 18.6345 22.8955 18.2334 23.2965C17.8324 23.6975 17.8324 24.3477 18.2334 24.7488L20.1367 26.6521C20.14 26.6555 20.1428 26.6592 20.1462 26.6626C20.6609 27.1773 20.6609 28.0148 20.1462 28.5295C19.6315 29.0443 18.794 29.0441 18.2793 28.5296L16.1355 26.3858C16.8546 25.1017 16.6108 23.3699 15.5472 22.3402L15.5172 22.3102C15.1681 21.9611 14.7563 21.6977 14.3077 21.5287C15.2769 20.2269 15.1209 18.2545 13.9458 17.1233L13.9159 17.0934C12.9705 16.1226 11.4396 15.8247 10.1975 16.3492C10.041 15.8224 9.75534 15.3262 9.34017 14.9109L9.31025 14.881C7.97834 13.5492 5.81124 13.5493 4.47919 14.881L4.39341 14.9668L4.21554 14.7889C1.31319 11.8866 1.31319 7.16418 4.21554 4.26184C7.11795 1.35956 11.8404 1.35956 14.7426 4.26184L16.4786 5.99769L13.1865 9.19607C11.7166 10.5592 11.6961 13.0647 13.1433 14.4518C14.5806 15.889 16.9192 15.889 18.3564 14.4518L19.4919 13.3163C19.5275 13.2806 19.5857 13.2806 19.6215 13.3163L26.671 20.3658C27.1206 20.797 27.1206 21.5731 26.6711 22.0045ZM30.9159 14.4238L27.1733 17.9631L21.074 11.8638C20.2754 11.0315 18.8383 11.0315 18.0397 11.8638L16.9043 12.9993C16.2678 13.6357 15.2323 13.6357 14.5958 12.9991C13.9545 12.3838 13.9639 11.2755 14.6165 10.6705L20.9594 4.5079C27.8122 -1.82513 37.2186 7.55149 30.9159 14.4238Z" fill="#0085FF"/>
</svg>
