<svg width="68" height="68" viewBox="0 0 68 68" fill="none" xmlns="http://www.w3.org/2000/svg">
<g filter="url(#filter0_dd)">
<circle cx="34" cy="34" r="20" fill="#F8F8F8"/>
</g>
<path d="M33.8846 33.7036C34.9568 33.7036 35.8853 33.319 36.6439 32.5603C37.4026 31.8017 37.7871 30.8734 37.7871 29.8011C37.7871 28.7291 37.4026 27.8007 36.6438 27.0418C35.8851 26.2833 34.9567 25.8987 33.8846 25.8987C32.8122 25.8987 31.884 26.2833 31.1253 27.0419C30.3667 27.8006 29.982 28.7289 29.982 29.8011C29.982 30.8734 30.3667 31.8018 31.1255 32.5604C31.8842 33.3189 32.8126 33.7036 33.8846 33.7036Z" fill="#B3BAC5"/>
<path d="M40.713 38.3578C40.6911 38.0421 40.6469 37.6977 40.5817 37.334C40.516 36.9676 40.4313 36.6212 40.3299 36.3047C40.2252 35.9774 40.0828 35.6543 39.9068 35.3447C39.7241 35.0233 39.5095 34.7434 39.2687 34.5131C39.0169 34.2722 38.7086 34.0785 38.3521 33.9372C37.9968 33.7966 37.6031 33.7254 37.1819 33.7254C37.0165 33.7254 36.8566 33.7933 36.5476 33.9944C36.3575 34.1184 36.1351 34.2618 35.8869 34.4204C35.6747 34.5556 35.3871 34.6823 35.032 34.797C34.6855 34.9092 34.3337 34.966 33.9864 34.966C33.6392 34.966 33.2875 34.9092 32.9406 34.797C32.5859 34.6824 32.2983 34.5557 32.0863 34.4205C31.8405 34.2634 31.6179 34.12 31.425 33.9943C31.1164 33.7931 30.9564 33.7253 30.791 33.7253C30.3697 33.7253 29.9761 33.7966 29.6209 33.9373C29.2647 34.0783 28.9562 34.272 28.7042 34.5132C28.4635 34.7436 28.2488 35.0234 28.0663 35.3447C27.8904 35.6543 27.748 35.9773 27.6432 36.3048C27.542 36.6214 27.4573 36.9676 27.3915 37.334C27.3264 37.6972 27.2821 38.0417 27.2602 38.3582C27.2387 38.6682 27.2278 38.99 27.2278 39.315C27.2278 40.1607 27.4967 40.8455 28.0269 41.3504C28.5505 41.8487 29.2434 42.1015 30.086 42.1015H37.8876C38.7302 42.1015 39.4228 41.8488 39.9466 41.3504C40.4769 40.8458 40.7458 40.161 40.7458 39.3148C40.7456 38.9884 40.7346 38.6663 40.713 38.3578Z" fill="#B3BAC5"/>
<defs>
<filter id="filter0_dd" x="0.686404" y="0.686404" width="66.6272" height="66.6272" filterUnits="userSpaceOnUse" color-interpolation-filters="sRGB">
<feFlood flood-opacity="0" result="BackgroundImageFix"/>
<feColorMatrix in="SourceAlpha" type="matrix" values="0 0 0 0 0 0 0 0 0 0 0 0 0 0 0 0 0 0 127 0" result="hardAlpha"/>
<feOffset dx="3.80388" dy="3.80388"/>
<feGaussianBlur stdDeviation="4.75486"/>
<feComposite in2="hardAlpha" operator="out"/>
<feColorMatrix type="matrix" values="0 0 0 0 0.819608 0 0 0 0 0.85098 0 0 0 0 0.901961 0 0 0 1 0"/>
<feBlend mode="normal" in2="BackgroundImageFix" result="effect1_dropShadow"/>
<feColorMatrix in="SourceAlpha" type="matrix" values="0 0 0 0 0 0 0 0 0 0 0 0 0 0 0 0 0 0 127 0" result="hardAlpha"/>
<feOffset dx="-3.80388" dy="-3.80388"/>
<feGaussianBlur stdDeviation="4.75486"/>
<feComposite in2="hardAlpha" operator="out"/>
<feColorMatrix type="matrix" values="0 0 0 0 1 0 0 0 0 1 0 0 0 0 1 0 0 0 1 0"/>
<feBlend mode="normal" in2="effect1_dropShadow" result="effect2_dropShadow"/>
<feBlend mode="normal" in="SourceGraphic" in2="effect2_dropShadow" result="shape"/>
</filter>
</defs>
</svg>
