<svg width="32" height="32" viewBox="0 0 32 32" fill="none" xmlns="http://www.w3.org/2000/svg">
<path d="M16 32C7.163 32 0 24.837 0 16C0 7.163 7.163 0 16 0C24.837 0 32 7.163 32 16C32 24.837 24.837 32 16 32ZM22.681 7.368L11.694 13.617L6.458 10.64L5.918 11.713L11.694 15.038L23.626 8.226L22.681 7.368ZM20.279 6L11.694 10.908L7.888 8.736L7.106 9.674L11.694 12.276L21.547 6.644L20.28 6H20.279ZM24.463 9.111L11.694 16.406L5.486 12.866L5.189 14.046L11.694 17.747L25.164 10.05L24.463 9.111ZM26.406 12.571L25.812 11.069L11.694 19.115L5 15.333V16.057C5 17.522 5.293 18.972 5.864 20.322C6.40537 21.6295 7.20383 22.8149 8.212 23.808C9.21982 24.7859 10.4005 25.5682 11.694 26.115C13.062 26.705 14.493 27 15.987 27C17.463 27 18.893 26.705 20.279 26.115C21.5877 25.5819 22.7797 24.7982 23.788 23.808C24.7847 22.8055 25.5816 21.6224 26.136 20.322L26.406 19.598C26.802 18.454 27 17.273 27 16.058C27 14.841 26.802 13.68 26.406 12.571Z" fill="black"/>
</svg>
