<svg width="21" height="21" viewBox="0 0 21 21" fill="none" xmlns="http://www.w3.org/2000/svg">
<path d="M19.0001 5.12497C16.0001 0.499969 9.87509 -0.87503 5.12509 1.99997C0.500091 4.87497 -0.999909 11.125 2.00009 15.75L2.25009 16.125L1.25009 19.875L5.00009 18.875L5.37509 19.125C7.00009 20 8.75009 20.5 10.5001 20.5C12.3751 20.5 14.2501 20 15.8751 19C20.5001 16 21.8751 9.87497 19.0001 5.12497ZM16.3751 14.75C15.8751 15.5 15.2501 16 14.3751 16.125C13.8751 16.125 13.2501 16.375 10.7501 15.375C8.62509 14.375 6.87509 12.75 5.62509 10.875C4.87509 9.99997 4.50009 8.87497 4.37509 7.74997C4.37509 6.74997 4.75009 5.87497 5.37509 5.24997C5.62509 4.99997 5.87509 4.87497 6.12509 4.87497H6.75009C7.00009 4.87497 7.25009 4.87497 7.37509 5.37497C7.62509 5.99997 8.25009 7.49997 8.25009 7.62497C8.37509 7.74997 8.37509 7.99997 8.25009 8.12497C8.37509 8.37497 8.25009 8.62497 8.12509 8.74997C8.00009 8.87497 7.87509 9.12497 7.75009 9.24997C7.50009 9.37497 7.37509 9.62497 7.50009 9.87497C8.00009 10.625 8.62509 11.375 9.25009 12C10.0001 12.625 10.7501 13.125 11.6251 13.5C11.8751 13.625 12.1251 13.625 12.2501 13.375C12.3751 13.125 13.0001 12.5 13.2501 12.25C13.5001 12 13.6251 12 13.8751 12.125L15.8751 13.125C16.1251 13.25 16.3751 13.375 16.5001 13.5C16.6251 13.875 16.6251 14.375 16.3751 14.75Z" fill="#0071D9"/>
</svg>
