<svg width="30" height="30" viewBox="0 0 30 30" fill="none" xmlns="http://www.w3.org/2000/svg">
<g clip-path="url(#clip0)">
<path d="M5.61282 5.61218C10.1932 1.03175 17.3334 0.533136 22.4712 4.11609C22.0741 4.07988 21.69 4.31823 21.5585 4.71279C21.405 5.17326 21.6538 5.671 22.1143 5.82451L25.8431 7.06742C26.1575 7.1723 26.5061 7.09151 26.7425 6.85509C26.9779 6.61972 27.06 6.27151 26.9548 5.9557L25.7119 2.22691C25.5584 1.7665 25.0608 1.51742 24.6002 1.67111C24.1397 1.82462 23.8909 2.3223 24.0444 2.78283L24.1834 3.20001C18.3244 -1.42483 9.77489 -1.03578 4.36991 4.36927C2.40145 6.33766 1.02688 8.80743 0.394736 11.5114C-0.219483 14.139 -0.115306 16.886 0.696133 19.4553C0.84232 19.9182 1.33613 20.1748 1.79889 20.0287C2.26177 19.8825 2.51846 19.3888 2.37233 18.926C0.880991 14.2039 2.12267 9.10232 5.61282 5.61218ZM15 14.1205C14.5154 14.1205 14.1211 13.7262 14.1211 13.2416C14.1211 12.757 14.5154 12.3627 15 12.3627C15.2791 12.3627 15.5355 12.491 15.7036 12.7147C15.9951 13.1027 16.546 13.181 16.9341 12.8895C17.3222 12.598 17.4005 12.047 17.1089 11.659C16.7947 11.2408 16.3628 10.9299 15.8788 10.7578V9.72615C15.8788 9.24077 15.4853 8.84727 14.9999 8.84727C14.5146 8.84727 14.1211 9.24077 14.1211 9.72615V10.7562C13.0981 11.119 12.3633 12.0959 12.3633 13.2417C12.3633 14.6955 13.5461 15.8783 14.9999 15.8783C15.4846 15.8783 15.8788 16.2726 15.8788 16.7572C15.8788 17.2418 15.4846 17.6361 14.9999 17.6361C14.7209 17.6361 14.4644 17.5077 14.2964 17.284C14.0048 16.8959 13.4539 16.8176 13.0658 17.1093C12.6777 17.4008 12.5995 17.9518 12.891 18.3398C13.2053 18.758 13.6372 19.0689 14.1211 19.2409V20.2726C14.1211 20.758 14.5146 21.1515 15 21.1515C15.4854 21.1515 15.8789 20.758 15.8789 20.2726V19.2426C16.9018 18.8798 17.6366 17.9029 17.6366 16.7571C17.6366 15.3033 16.4538 14.1205 15 14.1205ZM15 5.3317C9.66925 5.3317 5.33234 9.66861 5.33234 14.9994C5.33234 20.3301 9.66925 24.667 15 24.667C20.3308 24.667 24.6677 20.3301 24.6677 14.9994C24.6677 9.66861 20.3308 5.3317 15 5.3317ZM15 22.9093C10.6385 22.9093 7.09009 19.3609 7.09009 14.9994C7.09009 10.6378 10.6385 7.08945 15 7.08945C19.3615 7.08945 22.9099 10.6378 22.9099 14.9994C22.9099 19.3609 19.3615 22.9093 15 22.9093ZM29.3039 10.5434C29.1577 10.0805 28.664 9.82376 28.2011 9.96995C27.7382 10.1161 27.4815 10.6098 27.6277 11.0727C29.119 15.7949 27.8773 20.8964 24.3871 24.3865C19.8066 28.967 12.6666 29.4656 7.52865 25.8826C7.92579 25.9188 8.30992 25.6804 8.4414 25.2859C8.59491 24.8254 8.34607 24.3277 7.8856 24.1742L4.15681 22.9312C3.84094 22.8259 3.49284 22.9082 3.25742 23.1436C3.022 23.3789 2.93985 23.7272 3.04508 24.043L4.28799 27.7718C4.4418 28.2331 4.94012 28.4809 5.39972 28.3276C5.86019 28.174 6.10903 27.6764 5.95552 27.2158L5.81648 26.7987C8.5181 28.9312 11.7914 29.9985 15.0652 29.9985C18.8912 29.9985 22.7173 28.5421 25.63 25.6294C27.5984 23.661 28.973 21.1912 29.6052 18.4873C30.2195 15.8597 30.1153 13.1128 29.3039 10.5434Z" fill="#0085FF"/>
</g>
<defs>
<clipPath id="clip0">
<rect width="30" height="30" fill="white"/>
</clipPath>
</defs>
</svg>
