<svg width="21" height="21" viewBox="0 0 21 21" fill="none" xmlns="http://www.w3.org/2000/svg">
<path d="M10.5 7.2456C8.708 7.2456 7.2456 8.708 7.2456 10.5C7.2456 12.292 8.708 13.7544 10.5 13.7544C12.292 13.7544 13.7544 12.292 13.7544 10.5C13.7544 8.708 12.292 7.2456 10.5 7.2456ZM20.2607 10.5C20.2607 9.15234 20.2729 7.81689 20.1973 6.47167C20.1216 4.90917 19.7651 3.52245 18.6226 2.37988C17.4775 1.23486 16.0933 0.880853 14.5308 0.80517C13.1831 0.729486 11.8476 0.741693 10.5024 0.741693C9.15478 0.741693 7.81933 0.729486 6.47411 0.80517C4.91161 0.880853 3.5249 1.2373 2.38232 2.37988C1.2373 3.5249 0.883295 4.90917 0.807611 6.47167C0.731927 7.81933 0.744134 9.15478 0.744134 10.5C0.744134 11.8452 0.731927 13.1831 0.807611 14.5283C0.883295 16.0908 1.23974 17.4775 2.38232 18.6201C3.52734 19.7651 4.91161 20.1191 6.47411 20.1948C7.82177 20.2705 9.15722 20.2583 10.5024 20.2583C11.8501 20.2583 13.1855 20.2705 14.5308 20.1948C16.0933 20.1191 17.48 19.7627 18.6226 18.6201C19.7676 17.4751 20.1216 16.0908 20.1973 14.5283C20.2754 13.1831 20.2607 11.8477 20.2607 10.5ZM10.5 15.5073C7.729 15.5073 5.49267 13.271 5.49267 10.5C5.49267 7.729 7.729 5.49267 10.5 5.49267C13.271 5.49267 15.5073 7.729 15.5073 10.5C15.5073 13.271 13.271 15.5073 10.5 15.5073ZM15.7124 6.45703C15.0654 6.45703 14.543 5.93456 14.543 5.28759C14.543 4.64062 15.0654 4.11816 15.7124 4.11816C16.3594 4.11816 16.8818 4.64062 16.8818 5.28759C16.882 5.44122 16.8519 5.59337 16.7932 5.73534C16.7345 5.87731 16.6484 6.00631 16.5397 6.11494C16.4311 6.22357 16.3021 6.3097 16.1601 6.3684C16.0182 6.4271 15.866 6.45722 15.7124 6.45703Z" fill="#0085FF"/>
</svg>
