<svg width="33" height="35" viewBox="0 0 33 35" fill="none" xmlns="http://www.w3.org/2000/svg">
<path d="M29.149 14.4678H29.0624V12.3453C29.0624 5.52718 23.5353 0 16.7171 0C9.89887 0 4.37177 5.52718 4.37177 12.3453V14.4678H3.852C1.94604 14.4678 0.473294 16.1571 0.473294 18.1065V23.521C0.425289 25.4103 1.91802 26.9808 3.80731 27.0288C3.82224 27.0293 3.83708 27.0295 3.852 27.0297H7.05743C7.51145 27.0084 7.86225 26.6229 7.84085 26.1689C7.84011 26.1526 7.83886 26.1362 7.83712 26.12V15.5074C7.83712 14.9876 7.53392 14.4677 7.05743 14.4677H6.10445V12.3452C6.10445 6.48406 10.8559 1.73259 16.7171 1.73259C22.5782 1.73259 27.3297 6.48406 27.3297 12.3452V14.4677H26.3767C25.9002 14.4677 25.597 14.9875 25.597 15.5074V26.12C25.5487 26.5719 25.8758 26.9775 26.3278 27.0259C26.344 27.0276 26.3604 27.0288 26.3767 27.0296H27.373L27.2863 27.1595C25.9865 28.887 23.9469 29.8987 21.7851 29.8884C21.3118 27.5679 19.0469 26.0702 16.7263 26.5436C14.7418 26.9483 13.311 28.6862 13.295 30.7115C13.3187 33.0869 15.2512 35 17.6267 34.9998C18.8026 34.9808 19.9235 34.4982 20.7455 33.657C21.3001 33.0891 21.6635 32.3622 21.7851 31.5778C24.4923 31.588 27.0454 30.3195 28.6724 28.1558L29.4955 26.9429C31.3581 26.8129 32.5276 25.6434 32.5276 23.954V18.5394C32.5277 16.677 31.1416 14.4678 29.149 14.4678ZM6.10445 25.297H3.852C2.91925 25.2743 2.18151 24.4998 2.20423 23.5671C2.20464 23.5517 2.20522 23.5364 2.20597 23.521V18.1064C2.20597 17.1101 2.89902 16.2004 3.852 16.2004H6.10445V25.297ZM19.4894 32.4443C19.0093 32.9648 18.3348 33.2628 17.6268 33.2673C16.2174 33.2449 15.0738 32.1203 15.0278 30.7116C15.0272 29.3001 16.1709 28.1554 17.5824 28.1549C18.9939 28.1543 20.1386 29.298 20.1391 30.7095C20.1391 30.7102 20.1391 30.7109 20.1391 30.7116C20.1752 31.3547 19.9394 31.9834 19.4894 32.4443ZM30.795 23.9542C30.795 25.1237 29.6688 25.297 29.149 25.297H27.3297V16.2005H29.149C30.102 16.2005 30.795 17.5433 30.795 18.5396V23.9542Z" fill="#0085FF"/>
</svg>
