<svg width="25" height="15" viewBox="0 0 25 15" fill="none" xmlns="http://www.w3.org/2000/svg">
<path fill-rule="evenodd" clip-rule="evenodd" d="M24.4271 1.19587C24.6 0.627124 24.4271 0.208374 23.599 0.208374H20.8646C20.1688 0.208374 19.8479 0.569832 19.674 0.968791C19.674 0.968791 18.2833 4.29796 16.3135 6.46046C15.676 7.08754 15.3865 7.2865 15.0385 7.2865C14.8646 7.2865 14.6031 7.08754 14.6031 6.51775V1.19587C14.6031 0.512541 14.4115 0.208374 13.8323 0.208374H9.53229C9.09792 0.208374 8.83646 0.525041 8.83646 0.826082C8.83646 1.47296 9.82187 1.62296 9.92292 3.44379V7.40004C9.92292 8.26775 9.76354 8.42504 9.41562 8.42504C8.48854 8.42504 6.23333 5.08025 4.89479 1.25317C4.63542 0.508374 4.37292 0.208374 3.67396 0.208374H0.9375C0.15625 0.208374 0 0.569832 0 0.968791C0 1.67921 0.927083 5.20837 4.31771 9.87608C6.57812 13.0636 9.76042 14.7917 12.6594 14.7917C14.3979 14.7917 14.6125 14.4084 14.6125 13.7469V11.3375C14.6125 10.5698 14.7771 10.4167 15.3281 10.4167C15.7344 10.4167 16.4292 10.6167 18.0521 12.1532C19.9062 13.975 20.2115 14.7917 21.2552 14.7917H23.9896C24.7708 14.7917 25.1625 14.4084 24.9375 13.65C24.6896 12.8959 23.8042 11.8011 22.6302 10.5021C21.9927 9.76254 21.0365 8.96567 20.7458 8.56671C20.3406 8.05525 20.4562 7.82712 20.7458 7.37192C20.7458 7.37192 24.0792 2.7615 24.426 1.19587H24.4271Z" fill="#0085FF"/>
</svg>
